# xmcd
#
# Track frame offsets:
#	183
#	15645
#	31068
#	44155
#	58248
#	70423
#	85205
#	99708
#	110165
#	119710
#	137755
#	154498
#	165410
#	176175
#	188105
#	204423
#	221755
#	232798
#	243328
#	255390
#
# Disc length: 3550
#
# Revision: 4
# Processed by: cddbd v1.5.1PL0 Copyright (c) Steve Scherf et al.
# Submitted via: CDex 1.51
# Normalized: r2:TSWAP
#
DISCID=270ddc14
DTITLE=Various Artist - Country Party
DYEAR=1993
DGENRE=Country
TTITLE0=The Bluebells - Young At Heart
TTITLE1=Billy Ray Cyrus - Achy Breaky Heart
TTITLE2=Rey Stevens - Misty
TTITLE3=Charles Mann - Walk Of Life
TTITLE4=Dolly Parton - 9 to 5
TTITLE5=Glen Campbell - Rhinestone Cowboy
TTITLE6=The Bellamy Brothers - Let Your Love Flow
TTITLE7=The Everly Brothers - Bye Bye Love
TTITLE8=George Jones - The Race is On
TTITLE9=Billy Swan - I Can Help
TTITLE10=Johnny Cash - A Boy Named Sue
TTITLE11=Jerry Reed - Guitar Man
TTITLE12=The Kendalls - Heaven's Just A Sin Away
TTITLE13=Johnny Paycheck - Take This Job And Shove It
TTITLE14=Charlie Daniels Band - The Devil Went Down To Georgia
TTITLE15=Ricky Scaggs - Country Boy
TTITLE16=Run C and W - Sweet Soul Music
TTITLE17=Mel McDaniel - Lousiana Saturday Night
TTITLE18=The Oak Ridge Boys - Elvira
TTITLE19=The Kentucky Headhunters - Blue Moon Of Kentucky
EXTD=YEAR: 1993
EXTT0=
EXTT1=
EXTT2=
EXTT3=
EXTT4=
EXTT5=
EXTT6=
EXTT7=
EXTT8=
EXTT9=
EXTT10=
EXTT11=
EXTT12=
EXTT13=
EXTT14=
EXTT15=
EXTT16=
EXTT17=
EXTT18=
EXTT19=
PLAYORDER=
